<svg xmlns="http://www.w3.org/2000/svg" viewBox="0 0 512 512" version="1.1">
	<path d="M 242.922 14.495 C 213.495 20.044, 188.887 35.013, 174.237 56.275 C 165.884 68.399, 163.539 73.729, 149.604 112.277 C 136.330 148.999, 134 157.760, 134 170.960 C 134 180.989, 136.434 188.883, 143.109 200.500 C 152.655 217.115, 155.108 225.471, 153.089 234.493 C 150.037 248.132, 135.872 250.478, 133.030 237.815 L 132.286 234.500 131.063 237.500 C 128.716 243.261, 132.079 253.364, 138.004 258.350 C 140.800 260.703, 149.365 264, 152.682 264 C 154.470 264, 154.343 265.471, 152.416 267.070 C 150.180 268.925, 142.115 268.674, 138.205 266.627 L 134.909 264.902 136.874 268.701 C 139.117 273.038, 146.830 280.713, 152 283.752 C 160.785 288.916, 174.529 290.378, 186.895 287.463 C 190.412 286.634, 193.494 286.161, 193.745 286.411 C 194.737 287.404, 192.751 289, 190.523 289 C 186.101 289, 185.037 290.202, 179.584 301.350 C 176.113 308.448, 171.349 316.023, 166.476 322.195 C 159.698 330.779, 157.255 332.971, 145.160 341.326 C 137.647 346.516, 122.989 356.256, 112.587 362.970 C 76.979 385.954, 75.489 387.744, 88.539 391.875 C 102.282 396.225, 114.197 406.685, 133.110 431 C 146.534 448.259, 157.828 466, 155.390 466 C 154.367 466, 123.465 449.213, 112 442.428 C 106.225 439.011, 98.688 434.143, 95.250 431.610 C 91.813 429.077, 89 427.383, 89 427.845 C 89 430.178, 100.523 444.662, 109.428 453.521 C 124.992 469.006, 141.507 479.030, 164.543 486.973 C 177.292 491.369, 194.612 495.282, 199.194 494.801 L 202.070 494.500 199.548 489.500 C 195.392 481.261, 189.548 475.224, 184.181 473.628 L 179.500 472.236 183.348 471.488 C 187.076 470.764, 193.788 471.166, 201 472.545 C 204.471 473.209, 204.454 473.181, 199 469.162 C 195.975 466.933, 190.466 463.436, 186.759 461.391 C 180.138 457.739, 179.924 457.491, 174.852 447.586 C 165.814 429.938, 152.113 411.012, 140.526 400.174 C 134.200 394.256, 133.904 393.786, 135.646 392.439 C 136.666 391.651, 143.275 387.067, 150.334 382.253 C 157.393 377.439, 165.718 371.599, 168.834 369.277 C 171.950 366.954, 174.804 365.041, 175.175 365.027 C 176.107 364.990, 184.065 378.243, 191.060 391.481 C 196.311 401.418, 207 424.225, 207 425.492 C 207 425.771, 206.203 426, 205.228 426 C 204.248 426, 197.260 419.491, 189.589 411.432 C 177.988 399.244, 170.469 392.409, 160.056 384.585 C 158.605 383.495, 161.353 388.742, 169.899 403.380 C 174.859 411.875, 198.122 443.265, 211.491 459.500 C 216.020 465, 223.382 472.988, 227.852 477.250 C 234.399 483.494, 236.579 485, 239.071 485 L 242.163 485 239.902 481.250 C 235.525 473.994, 221.298 452.411, 215.677 444.501 C 212.550 440.102, 210.405 436.365, 210.910 436.197 C 212.062 435.813, 226.144 442.860, 235.456 448.482 C 247.024 455.465, 248.765 456.196, 250.986 455.007 C 253.978 453.406, 255.402 450.190, 253.914 448.396 C 252.187 446.315, 227.636 431.180, 221.228 428.247 C 218.296 426.905, 216.055 425.334, 216.248 424.756 C 216.440 424.179, 220.723 421.110, 225.766 417.937 C 230.808 414.764, 237.536 410.174, 240.717 407.737 C 246.553 403.266, 250.963 400.560, 251.419 401.169 C 251.556 401.351, 253.730 404.425, 256.252 408 C 258.773 411.575, 264.653 418.690, 269.317 423.811 C 273.982 428.932, 278.010 433.931, 278.269 434.920 C 279.247 438.659, 275.270 446.390, 266.827 457.163 C 261.915 463.429, 266.774 467.294, 294.279 479.002 C 314.073 487.426, 329.464 493, 332.936 493 C 334.751 493, 335.016 492.607, 334.456 490.750 C 333.480 487.517, 328.923 479.518, 318.795 463.256 C 307.809 445.618, 305 440.082, 305 436.073 C 305 433.022, 307.642 425.287, 308.408 426.096 C 308.618 426.318, 309.928 429.218, 311.319 432.540 C 317.265 446.738, 333.221 471.029, 338.342 473.677 C 343.131 476.153, 343.802 473.993, 340.327 467.287 C 338.678 464.104, 334.822 456.683, 331.758 450.795 C 328.047 443.664, 325.489 437.113, 324.094 431.171 C 321.170 418.718, 321.230 418.311, 325.498 421.566 C 329.126 424.333, 335.175 426.880, 338.301 426.956 C 339.887 426.995, 339.803 426.609, 337.601 423.722 C 332.664 417.249, 322.904 395.473, 322.295 389.571 C 321.935 386.081, 322.100 384, 322.738 384 C 323.299 384, 325.659 386.465, 327.983 389.479 C 333.260 396.318, 339.230 401.769, 342.285 402.535 C 344.137 403, 345.388 405.068, 348.331 412.531 C 352.985 424.330, 365.947 452.938, 369.498 459.250 C 370.968 461.863, 372.600 464, 373.125 464 C 373.650 464, 375.844 463.100, 378 462 C 380.156 460.900, 382.726 459.984, 383.710 459.964 C 385.130 459.935, 384.915 459.471, 382.668 457.714 C 374.022 450.954, 374.146 451.202, 374.731 441.836 C 375.955 422.203, 364.148 385.112, 353.209 374.228 C 351.148 372.177, 343.621 366.817, 336.481 362.316 C 329.342 357.815, 321.662 352.556, 319.416 350.630 C 313.978 345.967, 304 333.690, 304 331.662 C 304 329.103, 308.242 326.985, 315.652 325.843 C 319.419 325.263, 323.767 324.048, 325.316 323.144 C 328.609 321.221, 335.228 312.764, 337.709 307.308 C 338.661 305.214, 339.540 303.339, 339.661 303.143 C 339.782 302.946, 342.271 304.123, 345.191 305.758 C 355.802 311.701, 367.966 318.028, 391 329.589 C 416.361 342.317, 419.516 343.233, 424.707 339.383 C 429.143 336.094, 432.154 330.146, 431.629 325.711 C 431.382 323.627, 430.604 321.227, 429.900 320.379 C 428.417 318.593, 420.842 314.659, 406 307.968 C 375.126 294.049, 349.535 281.869, 348.829 280.758 C 347.335 278.404, 347.985 271.538, 350.018 268.203 C 351.123 266.390, 353.854 262.596, 356.086 259.772 C 362.678 251.433, 364.039 247.847, 365.562 234.815 C 367.685 216.636, 367.990 215.891, 375.875 209.600 C 398.916 191.216, 403.833 172.552, 394.608 138.500 C 382.815 94.972, 364.893 58.714, 345.938 40.041 C 333.991 28.271, 320.092 21.054, 300.330 16.358 C 291.078 14.159, 286.659 13.732, 270 13.425 C 255.963 13.167, 248.377 13.466, 242.922 14.495 M 324.749 65.459 C 335.394 68.500, 345.505 75.518, 350.835 83.564 C 354.761 89.492, 355.058 88.052, 351.168 81.946 C 345.231 72.625, 334.387 65.547, 324.419 64.483 L 319.500 63.959 324.749 65.459 M 295.123 115.866 C 292.874 116.496, 293.106 116.870, 299.430 122.785 C 314.058 136.469, 330.957 147.293, 344.302 151.526 C 355.118 154.956, 356.730 154.616, 348.455 150.651 C 332.047 142.787, 309.996 126.931, 304.560 119.086 C 301.684 114.936, 300.220 114.437, 295.123 115.866 M 270.655 117.750 C 270.391 118.713, 269.639 121.975, 268.984 125 C 267.305 132.756, 261.779 143.643, 256.402 149.791 C 252.965 153.719, 242.723 162.029, 238.266 164.505 C 238.137 164.577, 237.309 168.205, 236.425 172.568 C 234.185 183.633, 230.632 196.247, 225.388 211.749 C 219.552 229.001, 219.245 232.108, 221.946 246.650 C 227.278 275.353, 230.523 280.491, 254.079 297.508 C 279.441 315.832, 288.732 320, 304.210 320 C 311.894 320, 313.962 319.622, 318.354 317.416 C 325.405 313.875, 331.457 308.726, 333.028 304.932 C 334.245 301.993, 334.166 301.628, 331.920 299.864 C 330.318 298.606, 328.655 298.163, 327 298.554 C 325.625 298.880, 321.575 299.381, 318 299.669 C 312.342 300.123, 311.137 299.905, 308.697 297.982 C 305.456 295.427, 305.742 294.262, 309.164 296.075 C 312.533 297.860, 302.459 288.718, 296.250 284.356 C 289.728 279.774, 288.794 274.678, 295.094 278.050 C 296.536 278.822, 298.711 278.662, 303.279 277.451 C 306.700 276.543, 311.389 275.848, 313.698 275.906 C 316.006 275.965, 320.234 275.090, 323.092 273.964 L 328.289 271.915 335.748 275.458 C 339.851 277.406, 343.386 279, 343.604 279 C 343.822 279, 344 277.257, 344 275.126 C 344 269.622, 346.117 264.309, 351.366 256.642 C 357.173 248.160, 358.757 242.706, 359.624 228.199 L 360.323 216.509 356.627 219.755 C 352.170 223.668, 346.383 224.141, 341.250 221.011 C 336.636 218.198, 337.175 217.104, 342.667 218.130 C 348.242 219.172, 353.322 217.986, 356.641 214.867 C 359.586 212.101, 359.577 211.840, 356.411 208.077 C 353.182 204.239, 350 203.953, 350 207.500 C 350 212.451, 343.372 215.785, 339.010 213.027 C 337.983 212.378, 336.509 212.682, 334.260 214.009 L 331 215.933 331 212.934 C 331 208.623, 333.256 203.979, 337.131 200.311 C 341.399 196.272, 344.800 194.999, 351.315 195.004 C 356.536 195.008, 362.554 197.611, 364.300 200.621 C 364.740 201.379, 365.478 202, 365.941 202 C 367.070 202, 369.597 195.480, 370.447 190.374 L 371.134 186.247 366.777 185.594 C 361.770 184.843, 356.071 186.521, 350.293 190.447 C 345.997 193.366, 342.226 193.751, 341.309 191.364 C 340.226 188.540, 342.427 186.600, 350.362 183.389 L 358.050 180.277 350.275 177.536 C 323.739 168.179, 295.373 147.234, 278.107 124.250 C 274.699 119.713, 271.736 116, 271.522 116 C 271.309 116, 270.919 116.787, 270.655 117.750 M 242.664 121.492 C 235.043 133.555, 212.069 146.665, 195.008 148.685 C 186.935 149.642, 188.938 151.383, 197.298 150.677 C 213.021 149.348, 229.628 141.894, 241.435 130.867 C 245.479 127.090, 249.069 124, 249.411 124 C 249.754 124, 248.940 126.138, 247.603 128.750 C 244.287 135.231, 238.749 140.324, 229.923 145.008 C 221.272 149.599, 221.359 150.366, 230.041 146.058 C 244.126 139.070, 254.439 128.979, 257.441 119.250 C 258.110 117.081, 257.908 117, 251.817 117.002 L 245.500 117.004 242.664 121.492 M 371.653 125 C 372.001 126.375, 372.903 129.075, 373.658 131 C 374.832 133.995, 374.948 134.083, 374.461 131.610 C 374.148 130.021, 373.246 127.321, 372.456 125.610 C 371.376 123.271, 371.177 123.120, 371.653 125 M 149.812 167.681 C 152.894 172.085, 158.760 176.540, 165.664 179.719 C 176.682 184.791, 195.928 183.694, 206 177.419 C 207.779 176.311, 207.923 176.045, 206.500 176.498 C 195.123 180.118, 180.398 181.019, 171.500 178.639 C 164.594 176.791, 156.716 172.632, 151.758 168.215 L 147.587 164.500 149.812 167.681 M 264.528 179.066 C 258.397 180.092, 251.413 182.660, 247.692 185.258 C 243.810 187.968, 244.881 188.410, 250.960 186.604 C 253.797 185.762, 259.354 184.780, 263.309 184.422 C 270.977 183.729, 272.615 184.080, 289 189.936 C 298.493 193.328, 304.450 193.876, 305.383 191.443 C 306.800 187.752, 296.704 182.485, 282.500 179.504 C 274.818 177.892, 271.970 177.822, 264.528 179.066 M 272.500 199.852 C 269.200 200.851, 263.701 202.868, 260.280 204.334 C 256.859 205.800, 252.922 207, 251.530 207 C 248.434 207, 248.367 207.697, 251.174 210.686 C 253.021 212.651, 253.096 213, 251.674 213 C 249.027 213, 249.686 214.484, 254.110 218.481 C 263.390 226.864, 274.857 229.200, 285.315 224.837 C 291.650 222.193, 293.591 220.683, 288.939 222.017 C 282.779 223.784, 273.949 223.185, 268.500 220.630 L 263.500 218.286 269 217.362 C 274.200 216.488, 274.484 216.290, 274.212 213.719 C 273.921 210.966, 275.397 209.953, 276.354 212.250 C 276.889 213.535, 278.186 212.355, 280.551 208.428 C 282.070 205.907, 285.605 207.104, 292.533 212.484 C 295.732 214.968, 298.721 217, 299.175 217 C 302.615 217, 296.330 204.719, 290.824 200.682 C 287.141 197.982, 279.783 197.648, 272.500 199.852 M 189 222.590 C 189 222.724, 189.848 224.813, 190.885 227.231 C 194.694 236.117, 202.931 239.654, 208.396 234.750 C 210.622 232.753, 210.837 231.956, 210.312 227.659 L 209.719 222.819 207.552 225.538 C 205.770 227.772, 205.037 228.071, 203.442 227.214 C 201.436 226.138, 189 222.155, 189 222.590 M 307 253.429 C 307 256.900, 309.214 258.655, 314.617 259.465 C 317.211 259.854, 320.335 260.828, 321.558 261.630 C 323.570 262.948, 324.115 262.869, 327.277 260.794 C 329.199 259.532, 332.173 257.733, 333.886 256.797 C 335.715 255.796, 337 254.293, 337 253.154 C 337 251.244, 336.946 251.243, 333.279 253.112 C 330.085 254.741, 328.210 254.921, 320.029 254.387 C 313.759 253.978, 310.120 253.292, 309.390 252.382 C 307.761 250.354, 307 250.687, 307 253.429 M 213.067 265 C 212.926 272.306, 208.804 293.835, 205.961 302.113 C 204.333 306.856, 203 311.214, 203 311.797 C 203 313.234, 216.625 331.487, 225.721 342.238 C 247.903 368.452, 264.005 384.068, 273.204 388.288 C 277.467 390.244, 278 390.842, 278 393.673 C 278 396.744, 280.113 400, 282.107 400 C 282.637 400, 283.926 398.007, 284.970 395.570 C 287.007 390.817, 289.349 389, 293.434 389 C 294.845 389, 296 388.862, 296 388.693 C 296 388.524, 293.750 381.731, 291 373.599 C 288.250 365.466, 285.968 358.067, 285.930 357.156 C 285.874 355.847, 285.679 355.919, 285 357.500 C 284.527 358.600, 284.109 364.311, 284.070 370.191 C 284.032 376.071, 283.610 381.123, 283.134 381.417 C 282.657 381.712, 281.549 381.160, 280.672 380.190 C 275.645 374.635, 270.212 353.400, 269.309 335.774 C 268.863 327.078, 268.245 323.288, 266.918 321.105 C 265.933 319.486, 257.496 312.743, 248.169 306.120 C 238.842 299.497, 229.783 292.373, 228.037 290.289 C 225.388 287.126, 218.554 274.135, 214.208 264 C 213.168 261.576, 213.133 261.606, 213.067 265 M 308.485 284.976 C 308.833 285.539, 310.966 286, 313.226 286 C 318.276 286, 317.891 285.491, 312.176 284.616 C 309.327 284.179, 308.068 284.302, 308.485 284.976 M 417.838 319.526 C 416.211 320.409, 414.501 322.739, 413.440 325.519 C 411.978 329.347, 411.891 330.693, 412.892 334.033 C 413.935 337.514, 414.449 338, 417.090 338 C 421.904 338, 425.965 335.291, 428.057 330.684 C 430.500 325.301, 430.485 322.485, 428 320 C 425.668 317.668, 421.608 317.478, 417.838 319.526 M 418.248 323.250 C 415.731 325.947, 414.568 330.063, 415.496 332.988 C 416.067 334.785, 416.671 335.015, 419.337 334.449 C 423.016 333.668, 425.658 331.562, 427.551 327.901 C 430.491 322.217, 422.802 318.372, 418.248 323.250 M 338 376.378 C 338 376.585, 338.788 377.373, 339.750 378.128 C 341.336 379.371, 341.371 379.336, 340.128 377.750 C 338.821 376.084, 338 375.555, 338 376.378" stroke="none" fill="black" fill-rule="evenodd"/>
</svg>